<?xml version="1.0" encoding="UTF-8"?>
<svg id="Camada_1" xmlns="http://www.w3.org/2000/svg" version="1.1" viewBox="0 0 141.04 141.04">
  <!-- Generator: Adobe Illustrator 30.5.1, SVG Export Plug-In . SVG Version: 2.1.4 Build 3)  -->
  <defs>
    <style>
      .st0 {
        fill: #009fe3;
      }
    </style>
  </defs>
  <rect class="st0" width="141.04" height="141.04" rx="12.92" ry="12.92"/>
  <path d="M70.52,11.29c-27.28,0-49.39,22.11-49.39,49.39s22.11,49.39,49.39,49.39c3.41,0,6.74-.35,9.95-1,3.22-.66,6.32-1.65,9.28-2.9-.12.05-.22.11-.34.16-6.26,2.6-11.19,7.65-14.01,13.82l-9.56,20.89h22.21l27.71-60.59s0,0,0-.01l.31-.68c2.46-5.87,3.83-12.32,3.83-19.08,0-3.32-.34-6.56-.96-9.7-4.51-22.63-24.47-39.7-48.43-39.7ZM97.26,71.88l-.18.4c-3.72,8.51-11.4,14.89-20.71,16.8-1.89.39-3.84.59-5.84.59-16,0-28.98-12.97-28.98-28.98s12.97-28.98,28.98-28.98c14.06,0,25.77,10.01,28.41,23.29.37,1.84.57,3.74.57,5.69,0,3.97-.8,7.75-2.25,11.2Z"/>
</svg>