<?xml version="1.0" encoding="UTF-8"?>
<svg id="Camada_1" xmlns="http://www.w3.org/2000/svg" version="1.1" viewBox="0 0 542.04 140.88">
  <!-- Generator: Adobe Illustrator 30.5.1, SVG Export Plug-In . SVG Version: 2.1.4 Build 3)  -->
  <defs>
    <style>
      .st0 {
        fill: #009fe3;
      }

      .st1 {
        fill: #f9f9f9;
      }
    </style>
  </defs>
  <polygon class="st1" points="393.81 71.31 363.36 4.8 341.59 4.8 386.2 102.58 401.41 102.58 401.44 102.58 446.04 4.8 424.15 4.8 393.81 71.31"/>
  <polygon class="st1" points="52.22 71.31 21.77 4.8 0 4.8 44.61 102.58 59.82 102.58 59.85 102.58 104.45 4.8 82.56 4.8 52.22 71.31"/>
  <path class="st1" d="M542.04,23.38V4.8h-81.88v69.62c0,15.55,12.61,28.16,28.16,28.16h53.64v-18.58h-50.28c-5.17,0-9.37-4.19-9.37-9.37v-12.79h53.78v-18.58h-53.78v-19.88h59.73Z"/>
  <polygon class="st1" points="197.48 68.95 136.04 4.8 119.09 4.8 119.09 102.58 141.26 102.58 141.26 38.67 202.7 102.58 219.64 102.58 219.64 4.8 197.48 4.8 197.48 68.95"/>
  <path class="st0" d="M287.91,0c-29.62,0-53.63,24.01-53.63,53.63s24.01,53.63,53.63,53.63c3.7,0,7.32-.38,10.81-1.09,3.5-.72,6.86-1.79,10.08-3.15-.13.05-.24.12-.37.17-6.8,2.82-12.15,8.31-15.21,15l-10.38,22.69h24.11l30.09-65.78h0s.34-.75.34-.75c2.67-6.38,4.16-13.37,4.16-20.72,0-3.6-.37-7.12-1.05-10.53C335.6,18.52,313.92,0,287.91,0h0ZM316.94,65.79l-.2.43c-4.04,9.24-12.37,16.17-22.49,18.24-2.05.42-4.17.64-6.34.64-17.38,0-31.47-14.09-31.47-31.47s14.09-31.47,31.47-31.47c15.26,0,27.98,10.87,30.85,25.29.4,2,.61,4.06.61,6.18,0,4.31-.87,8.42-2.44,12.16h.01Z"/>
</svg>